<svg width="29" height="28" viewBox="0 0 29 28" fill="none" xmlns="http://www.w3.org/2000/svg">
<path d="M21.5389 1.93092C21.5389 1.93092 19.7257 1.16882 19.4756 1.06297C19.2255 0.957121 18.9754 0.935951 18.7044 0.999459C18.4335 1.06297 18.2459 1.21115 18.1417 1.317C18.0375 1.42285 14.1401 5.38155 14.1401 5.38155C14.1401 5.38155 10.2845 1.46519 10.1594 1.33817C10.0344 1.21115 9.88847 1.08414 9.57584 0.999459C9.26322 0.914781 8.99228 0.97829 8.82555 1.06297C8.65882 1.12648 6.9915 1.84624 6.76224 1.93092C6.53298 2.0156 6.32457 2.20612 6.17868 2.43899C6.07447 2.62951 5.9911 2.84121 5.9911 3.09524C5.9911 2.86238 5.9911 8.59932 5.9911 8.59932L9.57584 10.6951V5.91079L11.2432 7.60435C11.3682 7.73137 11.5141 7.81604 11.6808 7.87955C11.8059 7.92189 11.9101 7.96423 12.0977 7.96423C12.2852 7.96423 16.1618 7.96423 16.1618 7.96423C16.3077 7.96423 16.4535 7.94306 16.5786 7.87955C16.7245 7.81604 16.8704 7.73137 17.0371 7.56201C17.2038 7.39265 18.6836 5.88962 18.6836 5.88962V10.6739L22.2683 8.57814C22.2683 8.57814 22.2683 3.66682 22.2683 3.11641C22.2892 2.54483 21.9765 2.12144 21.5389 1.93092Z" fill="#ED1C24"/>
<path d="M0.0108216 13.7858C0.0108216 13.7858 0.26092 15.7545 0.302603 16.0297C0.344286 16.3049 0.448493 16.5378 0.636067 16.7495C0.823641 16.9612 1.0529 17.0459 1.19879 17.0882C1.34468 17.1306 6.65927 18.5701 6.65927 18.5701C6.65927 18.5701 5.24204 23.926 5.20036 24.0742C5.15868 24.2435 5.11699 24.434 5.20036 24.7516C5.28373 25.0691 5.49214 25.2808 5.63803 25.3867C5.78392 25.4925 7.22199 26.6145 7.40956 26.7627C7.59713 26.9109 7.86807 27.0167 8.13901 27.0167C8.34743 27.0167 8.57668 26.9744 8.7851 26.8474C8.57668 26.9744 13.4744 24.0953 13.4744 24.0953V19.8826L9.3895 22.2747L9.99391 19.9461C10.0356 19.7767 10.0356 19.6074 10.0147 19.4169C9.99391 19.2687 9.97307 19.184 9.86886 18.9935C9.76465 18.8241 7.82639 15.4158 7.82639 15.4158C7.74302 15.2888 7.65966 15.183 7.55545 15.0983C7.4304 14.9924 7.28451 14.9078 7.05526 14.8442C6.84684 14.7807 4.80437 14.2303 4.80437 14.2303L8.88931 11.8382L5.30457 9.74239C5.30457 9.74239 1.11542 12.1981 0.636067 12.4733C0.156712 12.7908 -0.051703 13.2989 0.0108216 13.7858Z" fill="#ED1C24"/>
<path d="M20.8733 26.784C20.8733 26.784 22.4364 25.5773 22.6448 25.408C22.8532 25.2386 22.9991 25.0269 23.0824 24.7729C23.1658 24.4977 23.1241 24.2648 23.1033 24.1166C23.0616 23.9684 21.6444 18.5702 21.6444 18.5702C21.6444 18.5702 26.9173 17.1307 27.084 17.0884C27.2507 17.046 27.4383 16.9825 27.6676 16.7496C27.8968 16.5168 27.9802 16.2416 28.001 16.051C28.0219 15.8605 28.2511 14.0399 28.2928 13.8071C28.3345 13.553 28.2928 13.2778 28.1469 13.045C28.0427 12.8544 27.8968 12.6851 27.6884 12.5581C27.8968 12.6851 22.9991 9.80604 22.9991 9.80604L19.4143 11.9018L23.4993 14.294L21.2067 14.9079C21.04 14.9502 20.8941 15.0349 20.7482 15.1408C20.644 15.2254 20.5606 15.3101 20.4773 15.4795C20.3731 15.6488 18.4348 19.0571 18.4348 19.0571C18.3723 19.1841 18.3097 19.3112 18.2889 19.4593C18.2681 19.6287 18.2681 19.798 18.3306 20.0097C18.3931 20.2214 18.935 22.296 18.935 22.296L14.8501 19.9039V24.1166C14.8501 24.1166 19.0392 26.5723 19.5186 26.8475C19.9771 27.1439 20.4981 27.0804 20.8733 26.784Z" fill="#ED1C24"/>
</svg>
